<?xml version="1.0" standalone="no"?>
<!DOCTYPE svg PUBLIC "-//W3C//DTD SVG 20010904//EN"
 "http://www.w3.org/TR/2001/REC-SVG-20010904/DTD/svg10.dtd">
<svg version="1.0" xmlns="http://www.w3.org/2000/svg"
 width="700.000000pt" height="700.000000pt" viewBox="0 0 700.000000 700.000000"
 preserveAspectRatio="xMidYMid meet">
<metadata>
Created by potrace 1.11, written by Peter Selinger 2001-2013
</metadata>
<g transform="translate(0.000000,700.000000) scale(0.100000,-0.100000)"
fill="#000000" stroke="none">
<path d="M3380 6981 c-96 -29 -150 -61 -221 -131 -38 -38 -69 -74 -69 -81 0
-6 -8 -23 -18 -37 -20 -30 -41 -87 -48 -130 -11 -65 -16 -82 -27 -83 -7 0 -33
-2 -59 -4 -174 -13 -328 -71 -488 -183 l-64 -46 -656 -2 c-360 -1 -666 -4
-680 -6 -150 -26 -272 -129 -332 -279 l-22 -54 -2 -2784 c-2 -3037 -6 -2819
53 -2935 31 -60 113 -143 173 -174 108 -55 -43 -52 2575 -52 2657 0 2482 -4
2593 58 63 35 135 109 165 168 58 115 54 -74 54 2929 0 2144 -3 2770 -12 2806
-28 104 -109 212 -198 263 -106 61 -81 59 -808 61 l-665 1 -35 24 c-19 14 -43
32 -53 42 -26 24 -140 82 -208 107 -96 35 -154 48 -262 56 -32 2 -60 5 -61 7
-2 2 -6 23 -10 48 -26 191 -174 361 -355 410 -69 19 -197 19 -260 1z"/>
</g>
</svg>
