<svg version="1.1" id="Capa_1" xmlns="http://www.w3.org/2000/svg" xmlns:xlink="http://www.w3.org/1999/xlink" x="0px" y="0px" height="24px" width="24px"
	 viewBox="0 0 512 512" style="enable-background:new 0 0 512 512;" xml:space="preserve">
<path style="fill:#FFD15C;" d="M430.373,52.267H82.64c-18.133,0-32,13.867-32,32V480c0,18.133,13.867,32,32,32h346.667
	c18.133,0,32-13.867,32-32V84.267C462.373,67.2,447.44,52.267,430.373,52.267z"/>
<rect x="93.306" y="94.933" style="fill:#FFFFFF;" width="325.333" height="373.333"/>
<path style="fill:#415A6B;" d="M292.773,35.2L292.773,35.2C291.706,14.933,275.706,0,256.506,0s-35.2,14.933-36.267,35.2l0,0
	c-38.4,0-68.267,30.933-68.267,68.267H361.04C361.04,65.067,330.106,35.2,292.773,35.2z"/>
<circle style="fill:#FFFFFF;" cx="256.506" cy="35.2" r="11.733"/>
<path style="fill:#F3705A;" d="M167.973,218.667c-1.067,1.067-3.2,2.133-5.333,3.2c-3.2,1.067-6.4,0-8.533-3.2l-24.533-24.533
	c-4.267-4.267-4.267-10.667,0-13.867l0,0c4.267-4.267,10.667-4.267,13.867,0l14.933,13.867C169.04,176,181.84,160,198.906,147.2
	c4.267-3.2,10.667-2.133,13.867,2.133c3.2,4.267,2.133,10.667-2.133,13.867c-17.067,13.867-30.933,30.933-40.533,51.2
	C170.106,216.533,169.04,217.6,167.973,218.667z"/>
<g>
	<rect x="235.173" y="154.667" style="fill:#E8EAE9;" width="150.4" height="14.933"/>
	<rect x="235.173" y="196.267" style="fill:#E8EAE9;" width="77.867" height="14.933"/>
</g>
<path style="fill:#66C6B9;" d="M167.973,322.133c-1.067,1.067-3.2,2.133-5.333,3.2c-3.2,1.067-6.4,0-8.533-3.2l-24.533-23.467
	c-4.267-4.267-4.267-10.667,0-13.867l0,0c4.267-4.267,10.667-4.267,13.867,0l14.933,13.867
	c10.667-18.133,23.467-34.133,40.533-46.933c4.267-3.2,10.667-2.133,13.867,2.133s2.133,10.667-2.133,13.867
	c-17.067,13.867-30.933,30.933-40.533,51.2C170.106,320,169.04,321.067,167.973,322.133z"/>
<g>
	<rect x="235.173" y="259.2" style="fill:#E8EAE9;" width="150.4" height="14.933"/>
	<rect x="235.173" y="300.8" style="fill:#E8EAE9;" width="77.867" height="14.933"/>
</g>
<path style="fill:#F3705A;" d="M167.973,426.667c-1.067,1.067-3.2,2.133-5.333,3.2c-3.2,1.067-6.4,0-8.533-3.2l-24.533-24.533
	c-4.267-4.267-4.267-10.667,0-13.867l0,0c4.267-4.267,10.667-4.267,13.867,0l14.933,13.867C169.04,384,181.84,368,198.906,355.2
	c4.267-3.2,10.667-2.133,13.867,2.133c3.2,4.267,2.133,10.667-2.133,13.867c-17.067,13.867-30.933,30.933-40.533,51.2
	C170.106,424.533,169.04,425.6,167.973,426.667z"/>
<g>
	<rect x="235.173" y="362.667" style="fill:#E8EAE9;" width="150.4" height="14.933"/>
	<rect x="235.173" y="404.267" style="fill:#E8EAE9;" width="77.867" height="14.933"/>
</g>
<g>
</g>
<g>
</g>
<g>
</g>
<g>
</g>
<g>
</g>
<g>
</g>
<g>
</g>
<g>
</g>
<g>
</g>
<g>
</g>
<g>
</g>
<g>
</g>
<g>
</g>
<g>
</g>
<g>
</g>
</svg>
